Coordinates
nRows=146
nColumns=2
inDegrees=yes
endheader
time	ankle_angle_r	
3.5	  9.196009	
3.5625	  9.158492	
3.625	  9.154394	
3.6875	  9.141110	
3.75	  9.138740	
3.8125	  9.168573	
3.875	  9.186470	
3.9375	  9.164382	
4	  9.130778	
4.0625	  9.122441	
4.125	  9.133866	
4.1875	  9.164935	
4.25	  9.181674	
4.3125	  9.153763	
4.375	  9.147370	
4.4375	  9.162688	
4.5	  9.147808	
4.5625	  9.118655	
4.625	  9.110561	
4.6875	  9.156874	
4.75	  9.202209	
4.8125	  9.185736	
4.875	  9.166569	
4.9375	  9.162097	
5	  9.148202	
5.0625	  9.141207	
5.125	  9.140318	
5.1875	  9.150507	
5.25	  9.169687	
5.3125	  9.174697	
5.375	  9.167595	
5.4375	  9.155981	
5.5	  9.151304	
5.5625	  9.163524	
5.625	  9.183438	
5.6875	  9.193579	
5.75	  9.191876	
5.8125	  9.198773	
5.875	  9.192503	
5.9375	  9.164847	
6	  9.161909	
6.0625	  9.171205	
6.125	  9.178852	
6.1875	  9.191017	
6.25	  9.187848	
6.3125	  9.188724	
6.375	  9.194045	
6.4375	  9.185571	
6.5	  9.171800	
6.5625	  9.154819	
6.625	  9.160299	
6.6875	  9.183445	
6.75	  9.192101	
6.8125	  9.186341	
6.875	  9.157922	
6.9375	  9.133203	
7	  9.148199	
7.0625	  9.171963	
7.125	  9.174298	
7.1875	  9.162068	
7.25	  9.155124	
7.3125	  9.153285	
7.375	  9.147332	
7.4375	  9.148391	
7.5	  9.144365	
7.5625	  9.144235	
7.625	  9.167775	
7.6875	  9.175061	
7.75	  9.153838	
7.8125	  9.131933	
7.875	  9.127547	
7.9375	  9.121211	
8	  9.103759	
8.0625	  9.127333	
8.125	  9.169950	
8.1875	  9.176657	
8.25	  9.159256	
8.3125	  9.139124	
8.375	  9.133316	
8.4375	  9.127322	
8.5	  9.126957	
8.5625	  9.137743	
8.625	  9.135367	
8.6875	  9.149702	
8.75	  9.155099	
8.8125	  9.119607	
8.875	  9.103990	
8.9375	  9.113458	
9	  9.128425	
9.0625	  9.140498	
9.125	  9.137685	
9.1875	  9.142676	
9.25	  9.145672	
9.3125	  9.130883	
9.375	  9.119012	
9.4375	  9.134366	
9.5	  9.167766	
9.5625	  9.169710	
9.625	  9.142948	
9.6875	  9.118348	
9.75	  9.109576	
9.8125	  9.126415	
9.875	  9.144287	
9.9375	  9.154269	
10	  9.131557	
10.0625	  9.060635	
10.125	  9.022031	
10.1875	  9.036519	
10.25	  9.046999	
10.3125	  9.037485	
10.375	  9.044911	
10.4375	  9.102699	
10.5	  9.147764	
10.5625	  9.156265	
10.625	  9.173990	
10.6875	  9.161973	
10.75	  9.128093	
10.8125	  9.130479	
10.875	  9.154393	
10.9375	  9.188553	
11	  9.212335	
11.0625	  9.199323	
11.125	  9.164359	
11.1875	  9.143469	
11.25	  9.149642	
11.3125	  9.138290	
11.375	  9.126594	
11.4375	  9.155222	
11.5	  9.179756	
11.5625	  9.179686	
11.625	  9.153759	
11.6875	  9.126546	
11.75	  9.143524	
11.8125	  9.167191	
11.875	  9.164940	
11.9375	  9.168192	
12	  9.184468	
12.0625	  9.174116	
12.125	  9.142501	
12.1875	  9.134177	
12.25	  9.143298	
12.3125	  9.170212	
12.375	  9.193635	
12.4375	  9.166978	
12.5	  9.156733	
12.5625	  9.229732	
